<?xml version="1.0" encoding="UTF-8" standalone="no"?>
<!-- Created with Inkscape (http://www.inkscape.org/) -->

<svg
   xmlns:dc="http://purl.org/dc/elements/1.1/"
   xmlns:cc="http://creativecommons.org/ns#"
   xmlns:rdf="http://www.w3.org/1999/02/22-rdf-syntax-ns#"
   xmlns:svg="http://www.w3.org/2000/svg"
   xmlns="http://www.w3.org/2000/svg"
   xmlns:sodipodi="http://sodipodi.sourceforge.net/DTD/sodipodi-0.dtd"
   xmlns:inkscape="http://www.inkscape.org/namespaces/inkscape"
   width="32px"
   height="32px"
   id="svg3301"
   version="1.1"
   inkscape:version="0.48.5 r10040"
   sodipodi:docname="back.svg">
  <defs
     id="defs3303" />
  <sodipodi:namedview
     id="base"
     pagecolor="#ffffff"
     bordercolor="#666666"
     borderopacity="1.0"
     inkscape:pageopacity="0.0"
     inkscape:pageshadow="2"
     inkscape:zoom="11.197802"
     inkscape:cx="5.3282628"
     inkscape:cy="16"
     inkscape:current-layer="layer1"
     showgrid="true"
     inkscape:grid-bbox="true"
     inkscape:document-units="px"
     inkscape:window-width="1680"
     inkscape:window-height="1028"
     inkscape:window-x="-8"
     inkscape:window-y="142"
     inkscape:window-maximized="1" />
  <metadata
     id="metadata3306">
    <rdf:RDF>
      <cc:Work
         rdf:about="">
        <dc:format>image/svg+xml</dc:format>
        <dc:type
           rdf:resource="http://purl.org/dc/dcmitype/StillImage" />
        <dc:title></dc:title>
      </cc:Work>
    </rdf:RDF>
  </metadata>
  <g
     id="layer1"
     inkscape:label="Layer 1"
     inkscape:groupmode="layer">
    <g
       id="g262"
       transform="matrix(1.0358444,0,0,-1.0358444,17.704536,28.55851)"
       style="fill:#333333">
      <path
         inkscape:connector-curvature="0"
         d="m -11.014241,12.970427 c -0.258402,-0.222238 -0.428797,-0.537426 -0.432728,-0.903405 -3.2e-5,-0.003 0.0029,-0.007 0.0029,-0.01003 -4.3e-5,-0.004 -0.0031,-0.008 -0.0031,-0.01097 -0.0034,-0.312982 0.11227,-0.627242 0.349689,-0.868805 L -1.0937155,0.95518455 C -0.62086616,0.47307821 0.1530892,0.46476524 0.6351848,0.93661462 1.1182911,1.4094532 1.126604,2.1834086 0.65376546,2.6665148 L -7.3083326,10.800499 12.028552,10.592804 c 0.675961,-0.0073 1.228804,0.533833 1.236054,1.208794 0.0073,0.675961 -0.533833,1.228804 -1.209794,1.236065 l -19.3028866,0.20733 8.10096467,7.960452 c 0.48311703,0.473839 0.48444113,1.248869 0.013581,1.729954 -0.47284932,0.482107 -1.24583696,0.487409 -1.72794329,0.01456 L -11.014241,12.970427 z"
         style="fill:#333333;fill-opacity:1;fill-rule:nonzero;stroke:none"
         id="path264" />
    </g>
    <g
       id="g266"
       transform="matrix(-0.00139489,1.0358435,1.0358435,0.00139489,2.8780354,26.684852)"
       style="fill:#333333">
      <path
         inkscape:connector-curvature="0"
         d="m 0,0 -20.269,0 c -0.675,0 -1.222,-0.544 -1.222,-1.223 0,-0.673 0.547,-1.223 1.222,-1.223 l 20.269,0 c 0.676,0 1.223,0.55 1.223,1.223 C 1.223,-0.544 0.676,0 0,0"
         style="fill:#333333;fill-opacity:1;fill-rule:nonzero;stroke:none"
         id="path268" />
    </g>
  </g>
</svg>
